<?xml version="1.0" encoding="UTF-8"?>
<svg version="1.1" xmlns="http://www.w3.org/2000/svg" width="1024" height="1024">
<path d="M0 0 C6.15361253 4.41319687 10.9284265 9.86465969 14.3203125 16.6640625 C14.3203125 17.3240625 14.3203125 17.9840625 14.3203125 18.6640625 C15.25488281 18.62925781 16.18945312 18.59445313 17.15234375 18.55859375 C67.11880773 17.52886289 113.5712655 42.42523591 148.859375 76.26953125 C168.96925588 95.86055317 184.1634166 119.52485131 197.77734375 143.90917969 C199.34156096 146.70200042 200.92215077 149.48492989 202.5078125 152.265625 C208.6224228 163.00053181 214.59008447 173.80429246 220.44506836 184.68286133 C224.66815385 192.51050919 229.02612865 200.25479835 233.42553711 207.984375 C238.06486504 216.15826143 242.55612452 224.40818954 247.0078125 232.68554688 C248.00137074 234.5323517 249.0023656 236.3751831 250.01220703 238.21313477 C250.82311342 239.732487 251.59350793 241.27516474 252.29638672 242.84741211 C253.23953589 245.01459025 253.23953589 245.01459025 255.3203125 247.6640625 C258.22481758 248.5532595 260.36485018 248.97742058 263.3203125 249.2265625 C274.64223373 250.70958322 284.60804165 254.95109431 292.3203125 263.6640625 C300.32576728 274.47780893 302.50914016 285.34099386 301.3203125 298.6640625 C299.34948982 309.65852614 294.17896287 319.07868795 285.3828125 326.1015625 C280.26178583 329.53869258 275.29125622 332.64664782 268.98828125 332.68359375 C264.84429094 332.73298042 262.12657783 332.96182806 258.3203125 334.6640625 C254.83591492 338.88955727 252.77277875 343.91167506 250.6015625 348.89453125 C247.93818457 354.88355179 244.52669838 360.06651867 238.3203125 362.6640625 C232.77998747 363.32766689 227.88777106 363.41980145 222.8203125 360.9765625 C218.12561818 356.63397026 215.54303845 353.47040953 215.02734375 346.97265625 C215.09353433 342.22321074 216.76476676 338.83247673 219.0078125 334.7265625 C219.54776855 333.67082031 219.54776855 333.67082031 220.09863281 332.59375 C222.01825798 328.88144538 224.12133318 325.55344988 226.5703125 322.1640625 C228.63274335 318.57012359 228.25059717 316.1649596 227.22167969 312.20678711 C226.82579949 310.83351613 226.42400349 309.46193808 226.01660156 308.09204102 C224.54543087 303.03474559 223.84014387 298.37129913 223.8203125 293.1015625 C223.81342407 292.02733032 223.81342407 292.02733032 223.80639648 290.93139648 C223.92968149 285.92784313 225.20946169 282.36021439 227.1953125 277.7265625 C229.38184761 270.64491247 227.39925078 266.62465335 224.05102539 260.15917969 C221.49943091 255.59313433 218.85560257 251.09383906 216.12792969 246.63085938 C214.26070375 243.56622815 212.49820056 240.46127975 210.77001953 237.31713867 C209.74058941 235.44524439 208.69017156 233.58671599 207.6328125 231.73046875 C205.89620396 228.67993852 204.16861325 225.62447561 202.4453125 222.56640625 C195.83256517 210.83611117 189.17841925 199.12971643 182.48535156 187.44506836 C179.01840298 181.39162731 175.56328933 175.33200824 172.1328125 169.2578125 C159.13305429 146.26331901 145.66889209 123.87488737 127.3203125 104.6640625 C126.67578125 103.95636719 126.03125 103.24867188 125.3671875 102.51953125 C99.26617853 74.87437862 59.43858643 56.46264628 21.4453125 54.9765625 C16.62848191 54.86976024 13.41715126 54.89378588 9.39453125 57.71875 C7.19937854 60.27407457 5.260319 62.91255001 3.3203125 65.6640625 C-4.77276895 73.45946739 -15.21806969 75.2628907 -26.04174805 75.13647461 C-38.22758121 74.6653695 -47.07039846 69.70157291 -55.3671875 60.9765625 C-63.7746442 50.97226619 -65.59389493 39.4212532 -64.89306641 26.72558594 C-63.71215611 15.31642517 -57.01060898 6.89732859 -48.44921875 -0.1796875 C-33.59900483 -10.9033818 -15.01821752 -9.55704751 0 0 Z " fill="#000000" transform="translate(313.6796875,225.3359375)"/>
<path d="M0 0 C8.49522807 7.14820459 14.94572682 15.1293395 16.6875 26.3125 C17.4784069 39.6210296 15.83705349 50.41670747 7.6875 61.3125 C0.54492676 69.26261563 -9.00749295 74.81069208 -19.78125 75.55078125 C-31.88186033 75.88644938 -41.69149783 74.14925755 -51.32421875 66.26171875 C-53.35246995 64.27331531 -54.81382809 62.19746742 -56.4375 59.875 C-58.74037023 57.16202959 -59.87929413 56.3976135 -63.4140625 55.703125 C-67.44705512 55.61676542 -71.3080348 55.87953547 -75.3125 56.3125 C-76.00859375 56.3734082 -76.7046875 56.43431641 -77.421875 56.49707031 C-114.15198422 59.89862696 -147.36237317 78.9398447 -173.3125 104.3125 C-174.08464844 105.02277344 -174.85679687 105.73304688 -175.65234375 106.46484375 C-183.83703313 114.17591638 -190.3416306 123.48862866 -196.94262695 132.55029297 C-197.46687256 133.26459473 -197.99111816 133.97889648 -198.53125 134.71484375 C-198.99853516 135.35800537 -199.46582031 136.00116699 -199.94726562 136.66381836 C-202.59479268 139.86101975 -205.41577628 141.07327359 -209.48046875 141.5859375 C-214.49110541 141.80415618 -218.07755261 141.19996413 -222.3125 138.3125 C-225.83186912 134.73590537 -228.17914611 131.83273431 -228.625 126.75 C-228.26395445 106.67586743 -204.0346294 85.36832962 -190.75390625 72.4609375 C-184.93948292 66.94356489 -178.79056791 62.02158856 -172.3125 57.3125 C-171.46816406 56.68472656 -170.62382813 56.05695313 -169.75390625 55.41015625 C-144.11038316 36.84070849 -111.25660933 21.40625032 -79.234375 19.984375 C-68.91384548 20.13370871 -68.91384548 20.13370871 -59.875 16.28515625 C-58.44149062 13.7761092 -58.44149062 13.7761092 -57.47265625 11.05078125 C-54.57726712 4.216883 -46.91533547 -1.06655871 -40.22265625 -3.98046875 C-27.10456437 -8.83604059 -11.72818029 -8.22347017 0 0 Z " fill="#000000" transform="translate(757.3125,224.6875)"/>
<path d="M0 0 C4.02221055 2.97643581 6.53476047 5.5417814 8.125 10.3125 C8.63487873 16.74377037 7.51652453 20.59557424 4.4375 26.1875 C4.075354 26.88077393 3.71320801 27.57404785 3.34008789 28.28833008 C1.74218535 31.34235995 0.09472848 34.36804472 -1.5546875 37.39453125 C-2.01101563 38.25433594 -2.46734375 39.11414063 -2.9375 40 C-3.54271484 41.08861328 -3.54271484 41.08861328 -4.16015625 42.19921875 C-5.69172014 46.7269568 -3.22786561 51.33487026 -1.8125 55.6875 C1.17420656 66.02693506 1.07716187 75.97993346 -1.875 86.3125 C-2.24429769 91.50341467 -1.65181669 94.56966664 0.94921875 99.05859375 C1.55910645 100.13077148 2.16899414 101.20294922 2.79736328 102.30761719 C3.4623584 103.44360352 4.12735352 104.57958984 4.8125 105.75 C5.50155226 106.95246938 6.1888653 108.15593692 6.87451172 109.36035156 C7.92640963 111.20775994 8.97928508 113.05451631 10.03765869 114.89822388 C13.38298221 120.72881879 16.57566728 126.63727496 19.75 132.5625 C24.43456933 141.25803113 29.23302443 149.8815178 34.11645508 158.46679688 C37.64502113 164.67480037 41.11872076 170.91040371 44.56347656 177.1652832 C61.94549937 208.98090991 61.94549937 208.98090991 83.125 238.3125 C83.60807617 238.90691895 84.09115234 239.50133789 84.58886719 240.11376953 C112.62733163 274.61310546 150.77812359 297.07710487 195.125 302.3125 C198.10211371 302.54707703 201.08033704 302.71912002 204.0625 302.875 C204.84173828 302.91818359 205.62097656 302.96136719 206.42382812 303.00585938 C208.32407117 303.11078077 210.22451669 303.2120245 212.125 303.3125 C212.51558594 302.44238281 212.51558594 302.44238281 212.9140625 301.5546875 C217.78500608 292.53558552 227.15524573 287.65451759 236.54296875 284.5 C248.05794385 281.56520989 259.81474575 283.43999974 270.22265625 289.1015625 C279.62097782 295.08406699 285.79979524 303.68374987 288.65625 314.48046875 C290.81416834 327.51789203 288.92063082 338.90482196 281.84765625 349.9921875 C275.44394443 358.61759526 265.85780969 364.11676187 255.328125 366.03125 C244.40391022 367.42583061 233.98921049 365.42868324 225.015625 358.84375 C218.81473942 353.82154515 213.53216505 347.56281805 210.125 340.3125 C209.02027344 340.28671875 207.91554688 340.2609375 206.77734375 340.234375 C154.5917351 338.53755979 111.3540618 315.60742039 74.125 280.3125 C72.99384766 279.24515625 72.99384766 279.24515625 71.83984375 278.15625 C66.45215224 272.92922524 61.775785 267.19574302 57.125 261.3125 C55.93390625 259.82943359 55.93390625 259.82943359 54.71875 258.31640625 C38.17879774 237.35358701 25.60072089 213.56043578 12.5390625 190.359375 C8.76385103 183.6602035 4.94514589 176.98609572 1.125 170.3125 C-3.29165892 162.59606715 -7.70078361 154.87579194 -12.06176758 147.12768555 C-13.13362099 145.23041325 -14.21273513 143.337222 -15.29956055 141.44848633 C-17.88638178 136.94069076 -20.33188623 132.42988298 -22.5625 127.734375 C-26.23396096 119.33043128 -26.23396096 119.33043128 -32.76416016 113.38183594 C-36.22307034 112.45470537 -39.55923802 112.32315532 -43.125 112.33984375 C-48.16199066 112.30311569 -51.59543179 110.81198919 -55.875 108.3125 C-56.90625 107.714375 -57.9375 107.11625 -59 106.5 C-68.28765785 99.43330381 -74.60430295 90.29847143 -76.625 78.57421875 C-77.9610366 66.48726265 -75.80843502 55.25597378 -68.4921875 45.30078125 C-60.06542342 34.94033942 -50.06364039 29.63272377 -36.875 27.3125 C-35.885 27.3125 -34.895 27.3125 -33.875 27.3125 C-33.61203125 26.46558594 -33.3490625 25.61867188 -33.078125 24.74609375 C-29.82554652 15.46357268 -25.20753874 4.35828864 -16.625 -1.125 C-10.94331674 -2.28716248 -5.25841431 -2.799199 0 0 Z " fill="#000000" transform="translate(484.875,445.6875)"/>
<path d="M0 0 C3.81861696 2.70572313 6.7973537 4.99372411 7.70703125 9.76953125 C9.11184242 19.77881086 3.29293933 27.84274426 -2.41796875 35.64453125 C-14.33759592 50.9440527 -27.07904339 64.76729338 -42.59814453 76.48046875 C-44.17736694 77.68160593 -45.73421434 78.91200493 -47.2890625 80.14453125 C-55.15874544 86.29505686 -63.50444499 91.09169769 -72.29296875 95.76953125 C-73.42476562 96.38828125 -74.5565625 97.00703125 -75.72265625 97.64453125 C-100.70450201 110.81143349 -129.15225494 117.43514603 -157.29296875 116.76953125 C-157.53660156 117.65640625 -157.78023438 118.54328125 -158.03125 119.45703125 C-160.12819316 124.96231856 -164.21369117 128.62271596 -168.29296875 132.76953125 C-169.18242187 133.67832031 -169.18242187 133.67832031 -170.08984375 134.60546875 C-178.10810292 142.1273595 -188.43711668 144.12037607 -199.10546875 143.9765625 C-210.58345657 143.23105594 -219.24496527 138.28749063 -227.10546875 130.01953125 C-235.65999731 119.6651137 -237.43237674 107.73456606 -236.29296875 94.76953125 C-233.91181677 82.79573842 -227.16921881 73.79397658 -217.29296875 66.76953125 C-205.49994895 60.70797909 -194.65129307 58.96712634 -181.8828125 62.87109375 C-173.56661744 65.75604829 -164.42367384 70.85132309 -160.16162109 78.90820312 C-159.87496582 79.52244141 -159.58831055 80.13667969 -159.29296875 80.76953125 C-114.64062427 78.25879236 -78.06067801 63.24243351 -45.29296875 32.76953125 C-44.62523437 32.16753906 -43.9575 31.56554687 -43.26953125 30.9453125 C-35.86130004 23.97552763 -30.26472418 15.41009149 -24.43359375 7.12890625 C-18.47110542 -1.16940225 -9.71109937 -5.21123731 0 0 Z " fill="#000000" transform="translate(485.29296875,668.23046875)"/>
</svg>
