<?xml version="1.0" encoding="UTF-8"?>
<svg version="1.1" xmlns="http://www.w3.org/2000/svg" width="283" height="283">
<path d="M0 0 C3 1.9375 3 1.9375 5 4 C5 4.66 5 5.32 5 6 C5.66644531 6.02578125 6.33289063 6.0515625 7.01953125 6.078125 C22.23290854 7.01433283 35.57558707 13.92522263 46 25 C56.09711786 37.17080617 64.3642753 53.00680239 71.0847168 67.30834961 C71.87369272 69.15216646 71.87369272 69.15216646 73.8046875 69.90625 C74.48789063 70.1021875 75.17109375 70.298125 75.875 70.5 C79.46824972 71.69340236 81.57413317 72.99192513 84 76 C85.53214888 79.06429776 85.22938548 81.6165642 85 85 C83.33776508 88.65691682 81.4968634 91.00179234 78 93 C74.75 93.6875 74.75 93.6875 72 94 C71.773125 94.94875 71.54625 95.8975 71.3125 96.875 C70 100 70 100 67.625 101.5625 C65 102 65 102 62.6875 100.625 C62.130625 100.08875 61.57375 99.5525 61 99 C61.4979837 95.26512223 61.87491756 93.18762365 64 90 C65.6418666 78.56024703 62.96111328 71.04901652 56.9375 61.25 C56.28072266 60.12207031 55.62394531 58.99414062 54.94726562 57.83203125 C53.00775383 54.52626237 51.01786695 51.25843692 49 48 C48.37013184 46.9800293 47.74026367 45.96005859 47.09130859 44.90917969 C39.25024116 32.38785035 30.42053209 21.98376985 15.625 18.0625 C12.03639986 17.25482315 8.67848387 16.64760743 5 17 C3.55325644 18.28599428 2.10693058 19.57249176 0.66796875 20.8671875 C-1.88146136 22.59865057 -4.01112419 22.68573709 -7.03515625 22.5 C-10.5874283 21.5960421 -12.46296895 19.59890985 -15 17 C-16.73125121 13.53749757 -16.47815224 9.78591771 -16 6 C-12.022123 -0.67715069 -7.42956914 -2.07439455 0 0 Z " fill="#000000" transform="translate(85,61)"/>
<path d="M0 0 C3.85190568 3.19626216 5.83162034 5.24885153 6.3125 10.25 C5.94328153 14.68062166 4.83161153 16.61779734 2 20 C-1.41457004 22.59036348 -4.83282171 22.43108741 -9 22 C-11.04291182 20.73339467 -13.04690112 19.40113616 -15 18 C-22.25958361 15.82574867 -30.48868093 19.17373352 -36.96484375 22.64453125 C-42.84245386 26.55917752 -47.94425506 31.53762465 -52.3125 37.0625 C-55 40 -55 40 -57.75 40.5625 C-60 40 -60 40 -62 38 C-61.5506361 30.08681123 -56.16983282 25.05123363 -50.703125 19.7890625 C-40.61454148 11.1840942 -28.35554224 5.76486721 -15 6 C-14.6596875 5.1028125 -14.6596875 5.1028125 -14.3125 4.1875 C-10.99013194 -1.3497801 -5.84544261 -1.97209882 0 0 Z " fill="#000000" transform="translate(208,61)"/>
<path d="M0 0 C2.625 -0.5 2.625 -0.5 5 0 C5.66 0.66 6.32 1.32 7 2 C6.68822683 6.20893774 5.8631383 9.27372339 4 13 C4.33 13.99 4.66 14.98 5 16 C4.91857127 17.48449498 4.81130494 18.96765596 4.6875 20.44921875 C4.62841808 27.23748551 7.65435704 32.07619646 11 37.8125 C11.89477051 39.39635498 11.89477051 39.39635498 12.80761719 41.01220703 C14.51704506 44.02107803 16.25500209 47.0116647 18 50 C18.77680595 51.3654509 19.55297688 52.73126354 20.328125 54.09765625 C28.15635667 67.44701878 38.17637714 78.38308073 53.4375 82.6875 C58.71590976 83.34245684 58.71590976 83.34245684 64 83 C64.804375 82.34 65.60875 81.68 66.4375 81 C69.6844433 78.46580035 71.74184399 78.34691404 75.77734375 78.5625 C79.87850772 79.36975899 81.32543417 80.72365686 84 84 C85.37105716 88.28358536 85.53517384 91.70431597 83.8125 95.875 C79.6868178 100.71200672 79.6868178 100.71200672 75.91796875 101.35546875 C71.42002659 101.63146188 69.6034397 101.49029476 66 98.5625 C65.01 97.2940625 65.01 97.2940625 64 96 C62.06483006 94.06483006 58.5847772 94.14650309 56 93.6875 C40.05473562 90.64395095 27.57456802 82.18696466 17.859375 69.12109375 C14.10728666 63.45821968 10.79227013 57.6486764 7.60546875 51.6484375 C7.00057617 50.52445557 6.39568359 49.40047363 5.77246094 48.24243164 C4.56646752 45.98817385 3.38272746 43.72184248 2.22363281 41.44311523 C-1.15170406 34.76286927 -1.15170406 34.76286927 -7.24609375 30.9296875 C-8.48488281 30.62289062 -9.72367187 30.31609375 -11 30 C-13.80165541 27.92032435 -15.65545567 25.52758148 -16.44140625 22.04296875 C-16.65929195 18.36702615 -16.05868731 16.12715584 -14.5 12.75 C-11.76636148 9.74299763 -9.53575381 8.66994067 -5.88671875 7.078125 C-3.01432585 5.43675763 -1.79081536 2.71709917 0 0 Z " fill="#000000" transform="translate(129,123)"/>
<path d="M0 0 C1 1 1 1 1.125 3.9375 C-0.18171329 12.09608169 -9.32460661 18.84453933 -15.640625 23.47265625 C-22.3608814 27.82302091 -28.87800431 30.12001523 -36.75 31.4375 C-42.52586338 32.44098334 -45.37203393 33.6071226 -49.390625 37.75 C-52.06728175 39.8289567 -54.62548369 39.75402071 -57.9140625 39.53515625 C-61.29883918 38.66677721 -62.93509042 36.71019383 -65 34 C-66.61960213 30.76079573 -66.56618209 27.50121798 -66 24 C-63.59702886 20.06786541 -61.80477144 18.37257937 -57.625 16.4375 C-52.92898754 15.87073988 -51.10706835 16.74513895 -47 19 C-46.34 19.66 -45.68 20.32 -45 21 C-35.87281102 22.21695853 -26.52075776 18.41618407 -19.125 13.3125 C-14.78851599 9.94460293 -11.4868679 6.27101219 -8.33984375 1.78515625 C-5.78410428 -1.62001266 -3.84124554 -0.98493475 0 0 Z " fill="#000000" transform="translate(135,185)"/>
</svg>
