<?xml version="1.0" encoding="UTF-8"?>
<svg version="1.1" xmlns="http://www.w3.org/2000/svg" width="280" height="280" viewBox="0 0 283 283">
    <path
        d="M 0 0 C 3 1.9 3 1.9 5 4 C 5 4.7 5 5.3 5 6 C 5.7 6 6.3 6.1 7 6.1 C 22.2 7 35.6 13.9 46 25 C 56.1 37.2 64.4 53 71.1 67.3 C 71.9 69.2 71.9 69.2 73.8 69.9 C 74.5 70.1 75.2 70.3 75.9 70.5 C 79.5 71.7 81.6 73 84 76 C 85.5 79.1 85.2 81.6 85 85 C 83.3 88.7 81.5 91 78 93 C 74.8 93.7 74.8 93.7 72 94 C 71.8 94.9 71.5 95.9 71.3 96.9 C 70 100 70 100 67.6 101.6 C 65 102 65 102 62.7 100.6 C 62.1 100.1 61.6 99.6 61 99 C 61.5 95.3 61.9 93.2 64 90 C 65.6 78.6 63 71 56.9 61.3 C 56.3 60.1 55.6 59 54.9 57.8 C 53 54.5 51 51.3 49 48 C 48.4 47 47.7 46 47.1 44.9 C 39.3 32.4 30.4 22 15.6 18.1 C 12 17.3 8.7 16.6 5 17 C 3.6 18.3 2.1 19.6 0.7 20.9 C -1.9 22.6 -4 22.7 -7 22.5 C -10.6 21.6 -12.5 19.6 -15 17 C -16.7 13.5 -16.5 9.8 -16 6 C -12 -0.7 -7.4 -2.1 0 0 Z"
        fill="#000000" transform="translate(85,61) translate(34,50) scale(1.08) translate(-34,-50)" />
    <path
        d="M 0 0 C 3.9 3.2 5.8 5.2 6.3 10.3 C 5.9 14.7 4.8 16.6 2 20 C -1.4 22.6 -4.8 22.4 -9 22 C -11 20.7 -13 19.4 -15 18 C -22.3 15.8 -30.5 19.2 -37 22.6 C -42.8 26.6 -47.9 31.5 -52.3 37.1 C -55 40 -55 40 -57.8 40.6 C -60 40 -60 40 -62 38 C -61.6 30.1 -56.2 25.1 -50.7 19.8 C -40.6 11.2 -28.4 5.8 -15 6 C -14.7 5.1 -14.7 5.1 -14.3 4.2 C -11 -1.3 -5.8 -2 0 0 Z"
        fill="#000000" transform="translate(208,61) translate(-28,19) scale(1.08) translate(28,-19)" />
    <path
        d="M 0 0 C 2.6 -0.5 2.6 -0.5 5 0 C 5.7 0.7 6.3 1.3 7 2 C 6.7 6.2 5.9 9.3 4 13 C 4.3 14 4.7 15 5 16 C 4.9 17.5 4.8 19 4.7 20.4 C 4.6 27.2 7.7 32.1 11 37.8 C 11.9 39.4 11.9 39.4 12.8 41 C 14.5 44 16.3 47 18 50 C 18.8 51.4 19.6 52.7 20.3 54.1 C 28.2 67.4 38.2 78.4 53.4 82.7 C 58.7 83.3 58.7 83.3 64 83 C 64.8 82.3 65.6 81.7 66.4 81 C 69.7 78.5 71.7 78.3 75.8 78.6 C 79.9 79.4 81.3 80.7 84 84 C 85.4 88.3 85.5 91.7 83.8 95.9 C 79.7 100.7 79.7 100.7 75.9 101.4 C 71.4 101.6 69.6 101.5 66 98.6 C 65 97.3 65 97.3 64 96 C 62.1 94.1 58.6 94.1 56 93.7 C 40.1 90.6 27.6 82.2 17.9 69.1 C 14.1 63.5 10.8 57.6 7.6 51.6 C 7 50.5 6.4 49.4 5.8 48.2 C 4.6 46 3.4 43.7 2.2 41.4 C -1.2 34.8 -1.2 34.8 -7.2 30.9 C -8.5 30.6 -9.7 30.3 -11 30 C -13.8 27.9 -15.7 25.5 -16.4 22 C -16.7 18.4 -16.1 16.1 -14.5 12.8 C -11.8 9.7 -9.5 8.7 -5.9 7.1 C -3 5.4 -1.8 2.7 0 0 Z"
        fill="#000000"
        transform="translate(129,123) translate(34,50) scale(1.08) translate(-34,-50)" />
    <path
        d="M 0 0 C 1 1 1 1 1.1 3.9 C -0.2 12.1 -9.3 18.8 -15.6 23.5 C -22.4 27.8 -28.9 30.1 -36.8 31.4 C -42.5 32.4 -45.4 33.6 -49.4 37.8 C -52.1 39.8 -54.6 39.8 -57.9 39.5 C -61.3 38.7 -62.9 36.7 -65 34 C -66.6 30.8 -66.6 27.5 -66 24 C -63.6 20.1 -61.8 18.4 -57.6 16.4 C -52.9 15.9 -51.1 16.7 -47 19 C -46.3 19.7 -45.7 20.3 -45 21 C -35.9 22.2 -26.5 18.4 -19.1 13.3 C -14.8 9.9 -11.5 6.3 -8.3 1.8 C -5.8 -1.6 -3.8 -1 0 0 Z"
        fill="#000000"
        transform="translate(135,185) translate(-33,19) scale(1.08) translate(33,-19)" />
    <rect stroke="rgb(0, 0, 0)" stroke-width="3%" rx="20%" ry="20%" x="7" y="7" width="270"
        height="270"
        fill="none" />


</svg>